# xmcd
#
# Track frame offsets:
#	150
#	29280
#	51957
#	73699
#	96444
#	126709
#	144148
#	159980
#	183789
#	196810
#	227715
#	242123
#
# Disc length: 3422 seconds
#
# Revision: 1
# Processed by: cddbd v1.5.1PL0 Copyright (c) Steve Scherf et al.
# Submitted via: audiograbber 1.83.01
#
DISCID=a40d5c0c
DTITLE=Dave Nevling - Heady Brew!
DYEAR=2004
DGENRE=Blues
TTITLE0=You The One
TTITLE1=Dip My WIck
TTITLE2=I Can't Pretend
TTITLE3=Jonina
TTITLE4=It Ain't Love
TTITLE5=Only You
TTITLE6=In and Out
TTITLE7=Our Separate Ways
TTITLE8=You Wrong for That
TTITLE9=Sweet Thing
TTITLE10=Leon's BBQ
TTITLE11=Front Porch Boogie
EXTD=
EXTT0=
EXTT1=
EXTT2=
EXTT3=
EXTT4=
EXTT5=
EXTT6=
EXTT7=
EXTT8=
EXTT9=
EXTT10=
EXTT11=
PLAYORDER=
